<svg width="229" height="70" viewBox="0 0 229 70" fill="none" xmlns="http://www.w3.org/2000/svg">
<g clip-path="url(#clip0_1525_27123)">
<path d="M8.27008 44.37C5.29309 41.1278 3.2377 37.1482 2.31708 32.844L1.17008 45.957C1.08931 46.6918 1.16597 47.4354 1.39495 48.1383C1.62393 48.8412 1.99997 49.4872 2.49807 50.0335C2.99616 50.5797 3.60488 51.0136 4.28372 51.3063C4.96256 51.599 5.69594 51.7438 6.43508 51.731H20.8191C15.99 50.5977 11.6159 48.032 8.27008 44.37V44.37ZM11.0881 6.42798C14.2839 3.4752 18.1028 1.27871 22.2621 0.000976563L10.9601 0.000976562C9.38896 0.0293851 7.88273 0.632668 6.7264 1.69668C5.57006 2.76069 4.84382 4.21163 4.68508 5.77498L3.69108 17.147C5.31658 13.061 7.84655 9.39627 11.0911 6.42798H11.0881ZM37.8041 17.128C36.8476 16.1085 35.6875 15.3015 34.3991 14.7592C33.1107 14.2169 31.7227 13.9514 30.3251 13.98C26.9943 14.0855 23.8129 15.3866 21.3627 17.6451C18.9124 19.9037 17.357 22.9688 16.9811 26.28C16.8275 27.6866 16.9707 29.1097 17.4013 30.4576C17.8319 31.8054 18.5404 33.048 19.4811 34.105C20.4358 35.1271 21.5961 35.9355 22.8857 36.477C24.1752 37.0186 25.5648 37.281 26.9631 37.247C30.2918 37.1427 33.4716 35.8432 35.9206 33.5863C38.3696 31.3294 39.9239 28.2661 40.2991 24.957C40.4538 23.5499 40.3112 22.1259 39.8806 20.7774C39.4499 19.4289 38.7408 18.1859 37.7991 17.129L37.8041 17.128ZM81.2991 17.629C81.3597 17.1512 81.3164 16.666 81.1721 16.2066C81.0278 15.7471 80.7859 15.3243 80.4631 14.967C80.0717 14.5685 79.6013 14.2564 79.082 14.0507C78.5627 13.8451 78.0061 13.7505 77.4481 13.773C76.0036 13.7916 74.6122 14.3203 73.5199 15.2656C72.4276 16.211 71.7047 17.5121 71.4791 18.939L56.3451 17.629C56.8332 12.3913 59.3053 7.53835 63.2551 4.06398C65.1936 2.32426 67.4296 0.947956 69.8561 0.000976563L38.2501 0.000976562C42.374 1.30369 46.0816 3.67055 48.9991 6.86298C51.3734 9.4676 53.1732 12.5425 54.2817 15.8881C55.3902 19.2336 55.7824 22.7749 55.4331 26.282C54.7786 33.4008 51.4787 40.0155 46.1851 44.82C42.5205 48.2139 38.0376 50.5983 33.1751 51.74H57.9131C56.8174 51.1364 55.8877 50.2718 55.2063 49.2227C54.525 48.1736 54.1131 46.9726 54.0073 45.7262C53.9015 44.4798 54.1049 43.2266 54.5996 42.0776C55.0943 40.9287 55.8649 39.9196 56.8431 39.14L78.8241 21.651C78.8761 21.608 78.9241 21.569 78.9791 21.529C79.6158 21.0759 80.1511 20.4951 80.5509 19.8236C80.9507 19.1521 81.2062 18.4047 81.3011 17.629H81.2991ZM102.118 51.739L105.218 13.751H98.9241V0.000976562H84.8351C87.4364 1.03644 89.7722 2.64258 91.6701 4.70098C93.4185 6.60852 94.7462 8.8624 95.5671 11.3163C96.388 13.7702 96.6837 16.3694 96.4351 18.945C96.1586 21.8253 95.2846 24.6164 93.8687 27.1399C92.4529 29.6634 90.5263 31.864 88.2121 33.601L83.2431 37.552L95.0431 37.592L94.9941 51.729L102.118 51.739Z" fill="#0047FC"/>
<path d="M218.676 44.589C214.757 48.2233 209.904 50.6952 204.66 51.728H219.16C220.731 51.6998 222.238 51.0966 223.394 50.0326C224.551 48.9685 225.277 47.5175 225.436 45.954L226.624 32.354C225.061 37.0405 222.327 41.25 218.68 44.583L218.676 44.589ZM166.026 44.583C162.107 48.2173 157.254 50.6892 152.01 51.722H194.295C189.199 50.7336 184.542 48.1676 180.984 44.3871C177.426 40.6066 175.147 35.803 174.469 30.656C173.05 36.0126 170.119 40.8477 166.027 44.584L166.026 44.583ZM130.913 6.20896C133.934 3.42072 137.511 1.30513 141.41 0.00195575H117.945C118.342 0.292659 118.71 0.62047 119.045 0.980956C119.757 1.75393 120.301 2.66614 120.642 3.65997C120.984 4.6538 121.116 5.70765 121.029 6.75496L117.362 51.73H141.638C136.431 50.7272 131.686 48.0713 128.108 44.157C125.733 41.5529 123.933 38.478 122.824 35.1323C121.716 31.7866 121.324 28.245 121.674 24.738C122.329 17.6199 125.629 11.006 130.922 6.20196L130.913 6.20896ZM157.635 16.902C156.675 15.8876 155.513 15.085 154.225 14.5455C152.936 14.006 151.55 13.7415 150.153 13.769C146.822 13.873 143.64 15.1735 141.19 17.4325C138.74 19.6914 137.186 22.7574 136.812 26.069C136.653 27.4758 136.794 28.9003 137.225 30.2489C137.656 31.5975 138.367 32.8397 139.312 33.894C140.267 34.9144 141.427 35.7217 142.716 36.2631C144.005 36.8045 145.394 37.0679 146.791 37.036C150.121 36.9323 153.303 35.6328 155.753 33.3753C158.204 31.1179 159.759 28.0535 160.135 24.743C160.288 23.3359 160.145 21.9124 159.714 20.5641C159.284 19.2158 158.576 17.9727 157.635 16.915V16.902ZM183.576 6.21496C186.593 3.42506 190.168 1.30739 194.064 0.00195575H158.726C163.06 1.50511 166.891 4.18466 169.789 7.74081C172.688 11.297 174.539 15.5894 175.137 20.138C176.555 14.7799 179.487 9.94401 183.582 6.20896L183.576 6.21496ZM210.292 16.909C209.332 15.8924 208.171 15.0877 206.882 14.5466C205.593 14.0055 204.205 13.74 202.807 13.767C199.476 13.8713 196.294 15.1719 193.843 17.4307C191.393 19.6895 189.838 22.7553 189.463 26.067C189.309 27.4736 189.452 28.8969 189.882 30.2448C190.313 31.5928 191.022 32.8353 191.963 33.892C192.918 34.9136 194.077 35.7217 195.366 36.2632C196.655 36.8047 198.044 37.0674 199.442 37.034C202.772 36.9303 205.954 35.6308 208.404 33.3733C210.855 31.1159 212.41 28.0515 212.786 24.741C212.94 23.3339 212.797 21.9102 212.366 20.5618C211.936 19.2134 211.227 17.9704 210.286 16.913L210.292 16.909ZM223.682 0.00195575H211.382C215.648 1.48283 219.428 4.10402 222.309 7.58101C225.191 11.058 227.066 15.2579 227.729 19.725L228.942 5.76796C229.023 5.03399 228.946 4.29131 228.717 3.58932C228.488 2.88732 228.112 2.24212 227.615 1.69663C227.117 1.15115 226.509 0.717891 225.831 0.425688C225.153 0.133485 224.42 -0.0109631 223.682 0.00195575" fill="#0000C2"/>
<path d="M11.9754 56.5868L11.7923 57.5578L6.32451 64.7766H10.5269L9.89014 68H0.498535L0.681592 67.0528L6.14941 59.8102H2.28135L2.91807 56.5868H11.9754Z" fill="#0003C2"/>
<path d="M22.2011 59.3724H18.1181L17.7998 60.9642H21.437L20.9277 63.5588H17.2745L16.9482 65.1745H21.1425L20.5695 68H12.7856L15.0698 56.5868H22.7582L22.2011 59.3724Z" fill="#0003C2"/>
<path d="M34.918 60.1046C34.918 60.9748 34.7137 61.7495 34.3051 62.4287C33.9019 63.1025 33.3394 63.6411 32.6178 64.0443L33.8355 68H29.9993L29.084 64.8084H28.0016L27.3649 68H23.7276L26.0119 56.5868H31.0976C32.2384 56.5868 33.159 56.9131 33.8594 57.5657C34.5651 58.2184 34.918 59.0647 34.918 60.1046ZM29.0363 59.643L28.5508 62.0466H29.5616C30.0285 62.0466 30.4052 61.906 30.6917 61.6248C30.9783 61.3436 31.1215 60.996 31.1215 60.5822C31.1215 60.2957 31.026 60.0675 30.835 59.8977C30.6493 59.7279 30.3734 59.643 30.0073 59.643H29.0363Z" fill="#0003C2"/>
<path d="M42.5888 68.3183C41.4799 68.3183 40.5062 68.1034 39.6679 67.6736C38.8348 67.2385 38.1955 66.6416 37.7498 65.8829C37.3094 65.1241 37.0892 64.2539 37.0892 63.2723C37.0892 62.243 37.2802 61.2905 37.6622 60.415C38.0496 59.5396 38.5775 58.802 39.2461 58.2024C39.9146 57.5976 40.7132 57.1253 41.6417 56.7857C42.5756 56.4462 43.5757 56.2764 44.6422 56.2764C46.3136 56.2764 47.6481 56.7433 48.6456 57.6771C49.6431 58.611 50.1419 59.8234 50.1419 61.3144C50.1419 62.3438 49.9482 63.2962 49.5609 64.1717C49.1789 65.0472 48.6536 65.7874 47.985 66.3922C47.3165 66.9971 46.5153 67.4694 45.5814 67.8089C44.6529 68.1485 43.6553 68.3183 42.5888 68.3183ZM43.1698 64.9596C43.7588 64.9596 44.292 64.8111 44.7696 64.5139C45.2524 64.2115 45.6212 63.8162 45.8759 63.328C46.1359 62.8399 46.2659 62.3146 46.2659 61.7521C46.2659 61.0995 46.0669 60.5822 45.669 60.2001C45.2763 59.8181 44.7404 59.6271 44.0612 59.6271C43.4723 59.6271 42.9364 59.7783 42.4535 60.0808C41.976 60.3779 41.6072 60.7732 41.3472 61.2667C41.0925 61.7548 40.9652 62.2801 40.9652 62.8425C40.9652 63.4899 41.1615 64.0045 41.5542 64.3866C41.9521 64.7686 42.4907 64.9596 43.1698 64.9596Z" fill="#0003C2"/>
<path d="M67.6962 56.5868L67.1073 59.4838H64.0351L62.3319 68H58.6787L60.374 59.4838H57.2859L57.8669 56.5868H67.6962Z" fill="#0003C2"/>
<path d="M73.9822 68.3183C72.8733 68.3183 71.8996 68.1034 71.0613 67.6736C70.2283 67.2385 69.5889 66.6416 69.1432 65.8829C68.7028 65.1241 68.4826 64.2539 68.4826 63.2723C68.4826 62.243 68.6736 61.2905 69.0556 60.415C69.443 59.5396 69.9709 58.802 70.6395 58.2024C71.308 57.5976 72.1066 57.1253 73.0351 56.7857C73.969 56.4462 74.9692 56.2764 76.0357 56.2764C77.7071 56.2764 79.0415 56.7433 80.039 57.6771C81.0366 58.611 81.5353 59.8234 81.5353 61.3144C81.5353 62.3438 81.3417 63.2962 80.9543 64.1717C80.5723 65.0472 80.047 65.7874 79.3784 66.3922C78.7099 66.9971 77.9087 67.4694 76.9748 67.8089C76.0463 68.1485 75.0488 68.3183 73.9822 68.3183ZM74.5633 64.9596C75.1522 64.9596 75.6855 64.8111 76.163 64.5139C76.6459 64.2115 77.0146 63.8162 77.2693 63.328C77.5293 62.8399 77.6593 62.3146 77.6593 61.7521C77.6593 61.0995 77.4603 60.5822 77.0624 60.2001C76.6697 59.8181 76.1338 59.6271 75.4547 59.6271C74.8657 59.6271 74.3298 59.7783 73.8469 60.0808C73.3694 60.3779 73.0006 60.7732 72.7406 61.2667C72.486 61.7548 72.3586 62.2801 72.3586 62.8425C72.3586 63.4899 72.5549 64.0045 72.9476 64.3866C73.3455 64.7686 73.8841 64.9596 74.5633 64.9596Z" fill="#0003C2"/>
<path d="M94.2586 68.3183C93.1496 68.3183 92.176 68.1034 91.3376 67.6736C90.5046 67.2385 89.8652 66.6416 89.4195 65.8829C88.9791 65.1241 88.7589 64.2539 88.7589 63.2723C88.7589 62.243 88.9499 61.2905 89.3319 60.415C89.7193 59.5396 90.2472 58.802 90.9158 58.2024C91.5843 57.5976 92.3829 57.1253 93.3114 56.7857C94.2453 56.4462 95.2455 56.2764 96.312 56.2764C97.9834 56.2764 99.3178 56.7433 100.315 57.6771C101.313 58.611 101.812 59.8234 101.812 61.3144C101.812 62.3438 101.618 63.2962 101.231 64.1717C100.849 65.0472 100.323 65.7874 99.6547 66.3922C98.9862 66.9971 98.185 67.4694 97.2511 67.8089C96.3226 68.1485 95.3251 68.3183 94.2586 68.3183ZM94.8396 64.9596C95.4285 64.9596 95.9618 64.8111 96.4393 64.5139C96.9222 64.2115 97.2909 63.8162 97.5456 63.328C97.8056 62.8399 97.9356 62.3146 97.9356 61.7521C97.9356 61.0995 97.7366 60.5822 97.3387 60.2001C96.946 59.8181 96.4101 59.6271 95.731 59.6271C95.142 59.6271 94.6061 59.7783 94.1233 60.0808C93.6457 60.3779 93.2769 60.7732 93.017 61.2667C92.7623 61.7548 92.6349 62.2801 92.6349 62.8425C92.6349 63.4899 92.8312 64.0045 93.2239 64.3866C93.6218 64.7686 94.1604 64.9596 94.8396 64.9596Z" fill="#0003C2"/>
<path d="M112.976 56.5868H116.463L114.178 68H111.202L108.161 62.4923L107.063 68H103.569L105.853 56.5868H108.814L111.862 62.1262L112.976 56.5868Z" fill="#0003C2"/>
<path d="M127.078 59.3724H122.995L122.677 60.9642H126.314L125.805 63.5588H122.152L121.825 65.1745H126.02L125.447 68H117.663L119.947 56.5868H127.635L127.078 59.3724Z" fill="#0003C2"/>
<path d="M142.34 56.5868H146.025L143.741 68H140.056L140.916 63.6862H138.066L137.207 68H133.514L135.798 56.5868H139.483L138.671 60.6777H141.521L142.34 56.5868Z" fill="#0003C2"/>
<path d="M152.399 68.3183C151.046 68.3183 149.961 67.9469 149.144 67.2041C148.332 66.4612 147.926 65.4876 147.926 64.2831C147.926 64.2035 147.926 64.1292 147.926 64.0603C147.931 63.986 147.942 63.8905 147.958 63.7737C147.974 63.6517 147.992 63.535 148.014 63.4235C148.035 63.3068 148.067 63.137 148.109 62.9142C148.151 62.686 148.194 62.4605 148.236 62.2376C148.284 62.0095 148.348 61.6964 148.427 61.2985C148.507 60.8952 148.587 60.4946 148.666 60.0967C148.746 59.6934 148.849 59.1708 148.977 58.5288C149.109 57.8814 149.239 57.2341 149.367 56.5868H153.139C152.471 59.9083 152.067 61.9166 151.929 62.6117C151.797 63.3015 151.73 63.7154 151.73 63.8533C151.73 64.1929 151.834 64.4635 152.041 64.6651C152.248 64.8615 152.537 64.9596 152.908 64.9596C153.343 64.9596 153.717 64.8217 154.031 64.5458C154.349 64.2645 154.553 63.9011 154.643 63.4554L156.012 56.5868H159.785L158.304 63.8692C158.007 65.3125 157.341 66.4161 156.307 67.1802C155.277 67.9389 153.975 68.3183 152.399 68.3183Z" fill="#0003C2"/>
<path d="M170.281 56.5868H173.767L171.483 68H168.506L165.466 62.4923L164.368 68H160.874L163.158 56.5868H166.119L169.167 62.1262L170.281 56.5868Z" fill="#0003C2"/>
<path d="M181.924 56.5868C182.937 56.5868 183.831 56.7937 184.606 57.2076C185.38 57.6161 185.972 58.1812 186.381 58.9028C186.794 59.6191 187.001 60.4363 187.001 61.3542C187.001 62.3093 186.821 63.2007 186.46 64.0284C186.105 64.8562 185.614 65.5592 184.988 66.1375C184.367 66.7159 183.621 67.1722 182.751 67.5065C181.886 67.8355 180.958 68 179.966 68H174.967L177.252 56.5868H181.924ZM180.077 64.8562C181.022 64.8562 181.788 64.5537 182.377 63.9488C182.972 63.3439 183.269 62.5905 183.269 61.6885C183.269 61.073 183.078 60.5928 182.696 60.2479C182.319 59.903 181.77 59.7306 181.048 59.7306H180.284L179.249 64.8562H180.077Z" fill="#0003C2"/>
<path d="M199.949 60.1046C199.949 60.9748 199.745 61.7495 199.336 62.4287C198.933 63.1025 198.371 63.6411 197.649 64.0443L198.867 68H195.03L194.115 64.8084H193.033L192.396 68H188.759L191.043 56.5868H196.129C197.27 56.5868 198.19 56.9131 198.891 57.5657C199.596 58.2184 199.949 59.0647 199.949 60.1046ZM194.067 59.643L193.582 62.0466H194.593C195.06 62.0466 195.436 61.906 195.723 61.6248C196.009 61.3436 196.153 60.996 196.153 60.5822C196.153 60.2957 196.057 60.0675 195.866 59.8977C195.68 59.7279 195.405 59.643 195.038 59.643H194.067Z" fill="#0003C2"/>
<path d="M210.995 59.3724H206.912L206.593 60.9642H210.23L209.721 63.5588H206.068L205.742 65.1745H209.936L209.363 68H201.579L203.863 56.5868H211.552L210.995 59.3724Z" fill="#0003C2"/>
<path d="M219.477 56.5868C220.491 56.5868 221.385 56.7937 222.159 57.2076C222.934 57.6161 223.526 58.1812 223.934 58.9028C224.348 59.6191 224.555 60.4363 224.555 61.3542C224.555 62.3093 224.375 63.2007 224.014 64.0284C223.658 64.8562 223.168 65.5592 222.541 66.1375C221.921 66.7159 221.175 67.1722 220.305 67.5065C219.44 67.8355 218.512 68 217.519 68H212.521L214.805 56.5868H219.477ZM217.631 64.8562C218.575 64.8562 219.342 64.5537 219.931 63.9488C220.525 63.3439 220.822 62.5905 220.822 61.6885C220.822 61.073 220.631 60.5928 220.249 60.2479C219.873 59.903 219.323 59.7306 218.602 59.7306H217.838L216.803 64.8562H217.631Z" fill="#0003C2"/>
</g>
<defs>
<clipPath id="clip0_1525_27123">
<rect width="228.974" height="70" fill="white"/>
</clipPath>
</defs>
</svg>
